<svg width="1600" height="1200" viewBox="0 0 1600 1200" xmlns="http://www.w3.org/2000/svg" role="img" aria-label="Dummy interior placeholder image">
  <defs>
    <linearGradient id="bg" x1="0" y1="0" x2="1" y2="1">
      <stop offset="0%" stop-color="#b28663"/>
      <stop offset="55%" stop-color="#8f6345"/>
      <stop offset="100%" stop-color="#3d2a1f"/>
    </linearGradient>
    <linearGradient id="floor" x1="0" y1="0" x2="0" y2="1">
      <stop offset="0%" stop-color="#7f5c42"/>
      <stop offset="100%" stop-color="#2e2018"/>
    </linearGradient>
  </defs>

  <rect width="1600" height="1200" fill="url(#bg)"/>
  <rect y="720" width="1600" height="480" fill="url(#floor)"/>

  <rect x="80" y="340" width="530" height="530" rx="8" fill="#1f1a18" opacity="0.78"/>
  <rect x="980" y="460" width="420" height="420" rx="10" fill="#6d4f39" opacity="0.46"/>
  <rect x="1060" y="520" width="280" height="300" rx="6" fill="#2b1d16" opacity="0.35"/>

  <g stroke="#21140e" stroke-width="16" opacity="0.72">
    <line x1="840" y1="230" x2="900" y2="900"/>
    <line x1="980" y1="210" x2="900" y2="900"/>
    <line x1="720" y1="190" x2="900" y2="900"/>
  </g>

  <g fill="#2d2018" opacity="0.48">
    <circle cx="720" cy="220" r="58"/>
    <circle cx="980" cy="220" r="58"/>
    <circle cx="840" cy="290" r="58"/>
    <circle cx="930" cy="350" r="58"/>
  </g>

  <g fill="#e9d7c7" opacity="0.2">
    <circle cx="420" cy="980" r="30"/>
    <circle cx="540" cy="980" r="30"/>
    <circle cx="660" cy="980" r="30"/>
    <circle cx="780" cy="980" r="30"/>
    <circle cx="900" cy="980" r="30"/>
    <circle cx="1020" cy="980" r="30"/>
    <circle cx="1140" cy="980" r="30"/>
  </g>

  <text x="64" y="1144" fill="#f9f1e8" font-family="Georgia, serif" font-size="38" opacity="0.7">
    Replace this placeholder with your final room image.
  </text>
</svg>
